# xmcd CD database file
#
# Track frame offsets:
#	182
#	14017
#	33855
#	47895
#	63270
#	78192
#	97982
#	112615
#	126105
#	140292
#	158512
#	168032
#
# Disc length: 2557 seconds
#
# Revision: 2
# Processed by: cddbd v1.4PL0 Copyright (c) Steve Scherf et al.
# Submitted via: CDex 1.40Beta8
#
DISCID=8209fb0c
DTITLE=The Cathedrals - Some of Their Finest Moments
DYEAR=1995
DGENRE=Gospel
TTITLE0=I've Read The Back Of The Book
TTITLE1=Crimson River
TTITLE2=Climbing Higher And Higher
TTITLE3=In The Depths Of The Sea
TTITLE4=I Can See The Hand
TTITLE5=O, What A Savior
TTITLE6=I've Just Started Living
TTITLE7=Life Will Be Sweeter
TTITLE8=Don't It Make You Wanna To Go Home
TTITLE9=Wedding Music
TTITLE10=Goin' In Style
TTITLE11=Daystar
EXTD=YEAR: 1995 ID3G: 38
EXTT0=
EXTT1=
EXTT2=
EXTT3=
EXTT4=
EXTT5=
EXTT6=
EXTT7=
EXTT8=
EXTT9=
EXTT10=
EXTT11=
PLAYORDER=
